<svg width="213" height="40" viewBox="0 0 213 40" fill="none" xmlns="http://www.w3.org/2000/svg">
<path d="M55.9563 15.528V20.424H61.7163V22.656H55.9563V27.768H62.4363V30H53.2203V13.296H62.4363V15.528H55.9563ZM67.9302 27.768H73.9302V30H64.7622V27.768L70.7862 19.008H64.7622V16.776H73.9302V19.008L67.9302 27.768ZM77.6071 30.168C77.1111 30.168 76.6951 30 76.3591 29.664C76.0231 29.328 75.8551 28.912 75.8551 28.416C75.8551 27.92 76.0231 27.504 76.3591 27.168C76.6951 26.832 77.1111 26.664 77.6071 26.664C78.0871 26.664 78.4951 26.832 78.8311 27.168C79.1671 27.504 79.3351 27.92 79.3351 28.416C79.3351 28.912 79.1671 29.328 78.8311 29.664C78.4951 30 78.0871 30.168 77.6071 30.168ZM81.0802 21.624C81.0802 19.992 81.4562 18.528 82.2082 17.232C82.9762 15.936 84.0082 14.928 85.3042 14.208C86.6162 13.472 88.0482 13.104 89.6002 13.104C91.3762 13.104 92.9522 13.544 94.3282 14.424C95.7202 15.288 96.7282 16.52 97.3522 18.12H94.0642C93.6322 17.24 93.0322 16.584 92.2642 16.152C91.4962 15.72 90.6082 15.504 89.6002 15.504C88.4962 15.504 87.5122 15.752 86.6482 16.248C85.7842 16.744 85.1042 17.456 84.6082 18.384C84.1282 19.312 83.8882 20.392 83.8882 21.624C83.8882 22.856 84.1282 23.936 84.6082 24.864C85.1042 25.792 85.7842 26.512 86.6482 27.024C87.5122 27.52 88.4962 27.768 89.6002 27.768C90.6082 27.768 91.4962 27.552 92.2642 27.12C93.0322 26.688 93.6322 26.032 94.0642 25.152H97.3522C96.7282 26.752 95.7202 27.984 94.3282 28.848C92.9522 29.712 91.3762 30.144 89.6002 30.144C88.0322 30.144 86.6002 29.784 85.3042 29.064C84.0082 28.328 82.9762 27.312 82.2082 26.016C81.4562 24.72 81.0802 23.256 81.0802 21.624ZM105.991 30.216C104.743 30.216 103.615 29.936 102.607 29.376C101.599 28.8 100.807 28 100.231 26.976C99.6547 25.936 99.3667 24.736 99.3667 23.376C99.3667 22.032 99.6627 20.84 100.255 19.8C100.847 18.76 101.655 17.96 102.679 17.4C103.703 16.84 104.847 16.56 106.111 16.56C107.375 16.56 108.519 16.84 109.543 17.4C110.567 17.96 111.375 18.76 111.967 19.8C112.559 20.84 112.855 22.032 112.855 23.376C112.855 24.72 112.551 25.912 111.943 26.952C111.335 27.992 110.503 28.8 109.447 29.376C108.407 29.936 107.255 30.216 105.991 30.216ZM105.991 27.84C106.695 27.84 107.351 27.672 107.959 27.336C108.583 27 109.087 26.496 109.471 25.824C109.855 25.152 110.047 24.336 110.047 23.376C110.047 22.416 109.863 21.608 109.495 20.952C109.127 20.28 108.639 19.776 108.031 19.44C107.423 19.104 106.767 18.936 106.063 18.936C105.359 18.936 104.703 19.104 104.095 19.44C103.503 19.776 103.031 20.28 102.679 20.952C102.327 21.608 102.151 22.416 102.151 23.376C102.151 24.8 102.511 25.904 103.231 26.688C103.967 27.456 104.887 27.84 105.991 27.84ZM131.267 16.56C132.307 16.56 133.235 16.776 134.051 17.208C134.883 17.64 135.531 18.28 135.995 19.128C136.475 19.976 136.715 21 136.715 22.2V30H134.003V22.608C134.003 21.424 133.707 20.52 133.115 19.896C132.523 19.256 131.715 18.936 130.691 18.936C129.667 18.936 128.851 19.256 128.243 19.896C127.651 20.52 127.355 21.424 127.355 22.608V30H124.643V22.608C124.643 21.424 124.347 20.52 123.755 19.896C123.163 19.256 122.355 18.936 121.331 18.936C120.307 18.936 119.491 19.256 118.883 19.896C118.291 20.52 117.995 21.424 117.995 22.608V30H115.259V16.776H117.995V18.288C118.443 17.744 119.011 17.32 119.699 17.016C120.387 16.712 121.123 16.56 121.907 16.56C122.963 16.56 123.907 16.784 124.739 17.232C125.571 17.68 126.211 18.328 126.659 19.176C127.059 18.376 127.683 17.744 128.531 17.28C129.379 16.8 130.291 16.56 131.267 16.56ZM138.985 23.328C138.985 22 139.257 20.824 139.801 19.8C140.361 18.776 141.113 17.984 142.057 17.424C143.017 16.848 144.073 16.56 145.225 16.56C146.265 16.56 147.169 16.768 147.937 17.184C148.721 17.584 149.345 18.088 149.809 18.696V16.776H152.569V30H149.809V28.032C149.345 28.656 148.713 29.176 147.913 29.592C147.113 30.008 146.201 30.216 145.177 30.216C144.041 30.216 143.001 29.928 142.057 29.352C141.113 28.76 140.361 27.944 139.801 26.904C139.257 25.848 138.985 24.656 138.985 23.328ZM149.809 23.376C149.809 22.464 149.617 21.672 149.233 21C148.865 20.328 148.377 19.816 147.769 19.464C147.161 19.112 146.505 18.936 145.801 18.936C145.097 18.936 144.441 19.112 143.833 19.464C143.225 19.8 142.729 20.304 142.345 20.976C141.977 21.632 141.793 22.416 141.793 23.328C141.793 24.24 141.977 25.04 142.345 25.728C142.729 26.416 143.225 26.944 143.833 27.312C144.457 27.664 145.113 27.84 145.801 27.84C146.505 27.84 147.161 27.664 147.769 27.312C148.377 26.96 148.865 26.448 149.233 25.776C149.617 25.088 149.809 24.288 149.809 23.376ZM162.535 16.56C163.575 16.56 164.503 16.776 165.319 17.208C166.151 17.64 166.799 18.28 167.263 19.128C167.727 19.976 167.959 21 167.959 22.2V30H165.247V22.608C165.247 21.424 164.951 20.52 164.359 19.896C163.767 19.256 162.959 18.936 161.935 18.936C160.911 18.936 160.095 19.256 159.487 19.896C158.895 20.52 158.599 21.424 158.599 22.608V30H155.863V16.776H158.599V18.288C159.047 17.744 159.615 17.32 160.303 17.016C161.007 16.712 161.751 16.56 162.535 16.56ZM170.236 23.328C170.236 22 170.508 20.824 171.052 19.8C171.612 18.776 172.364 17.984 173.308 17.424C174.268 16.848 175.332 16.56 176.5 16.56C177.364 16.56 178.212 16.752 179.044 17.136C179.892 17.504 180.564 18 181.06 18.624V12.24H183.82V30H181.06V28.008C180.612 28.648 179.988 29.176 179.188 29.592C178.404 30.008 177.5 30.216 176.476 30.216C175.324 30.216 174.268 29.928 173.308 29.352C172.364 28.76 171.612 27.944 171.052 26.904C170.508 25.848 170.236 24.656 170.236 23.328ZM181.06 23.376C181.06 22.464 180.868 21.672 180.484 21C180.116 20.328 179.628 19.816 179.02 19.464C178.412 19.112 177.756 18.936 177.052 18.936C176.348 18.936 175.692 19.112 175.084 19.464C174.476 19.8 173.98 20.304 173.596 20.976C173.228 21.632 173.044 22.416 173.044 23.328C173.044 24.24 173.228 25.04 173.596 25.728C173.98 26.416 174.476 26.944 175.084 27.312C175.708 27.664 176.364 27.84 177.052 27.84C177.756 27.84 178.412 27.664 179.02 27.312C179.628 26.96 180.116 26.448 180.484 25.776C180.868 25.088 181.06 24.288 181.06 23.376ZM186.202 23.328C186.202 22 186.474 20.824 187.018 19.8C187.578 18.776 188.33 17.984 189.274 17.424C190.234 16.848 191.29 16.56 192.442 16.56C193.482 16.56 194.386 16.768 195.154 17.184C195.938 17.584 196.562 18.088 197.026 18.696V16.776H199.786V30H197.026V28.032C196.562 28.656 195.93 29.176 195.13 29.592C194.33 30.008 193.418 30.216 192.394 30.216C191.258 30.216 190.218 29.928 189.274 29.352C188.33 28.76 187.578 27.944 187.018 26.904C186.474 25.848 186.202 24.656 186.202 23.328ZM197.026 23.376C197.026 22.464 196.834 21.672 196.45 21C196.082 20.328 195.594 19.816 194.986 19.464C194.378 19.112 193.722 18.936 193.018 18.936C192.314 18.936 191.658 19.112 191.05 19.464C190.442 19.8 189.946 20.304 189.562 20.976C189.194 21.632 189.01 22.416 189.01 23.328C189.01 24.24 189.194 25.04 189.562 25.728C189.946 26.416 190.442 26.944 191.05 27.312C191.674 27.664 192.33 27.84 193.018 27.84C193.722 27.84 194.378 27.664 194.986 27.312C195.594 26.96 196.082 26.448 196.45 25.776C196.834 25.088 197.026 24.288 197.026 23.376Z" fill="black"/>
<path d="M32 4H23.63C22.81 1.68 20.61 0 18 0C15.39 0 13.19 1.68 12.37 4H4C1.79 4 0 5.79 0 8V36C0 38.21 1.79 40 4 40H32C34.21 40 36 38.21 36 36V8C36 5.79 34.21 4 32 4ZM18 4C19.1 4 20 4.89 20 6C20 7.11 19.1 8 18 8C16.9 8 16 7.11 16 6C16 4.89 16.9 4 18 4ZM22 32H8V28H22V32ZM28 24H8V20H28V24ZM28 16H8V12H28V16Z" fill="#C8161D"/>
</svg>
